<svg width="288" height="289" viewBox="0 0 288 289" fill="none" xmlns="http://www.w3.org/2000/svg">
<path d="M144 0.935471C64.5769 0.935471 0.182617 65.3297 0.182617 144.753C0.182617 224.176 64.5769 288.57 144 288.57C223.423 288.57 287.817 224.176 287.817 144.753C287.817 65.3297 223.423 0.935471 144 0.935471ZM94.8864 81.1976H193.114C211.151 81.1976 222.62 100.709 213.548 116.433L152.917 221.479C152.011 223.042 150.71 224.339 149.145 225.24C147.58 226.142 145.806 226.617 144 226.617C142.194 226.617 140.42 226.142 138.855 225.24C137.29 224.339 135.989 223.042 135.083 221.479L74.4763 116.433C65.3918 100.685 76.8373 81.1976 94.8864 81.1976ZM152.941 99.1268V189.971L166.148 164.468L197.979 107.468C198.467 106.617 198.721 105.652 198.716 104.671C198.711 103.69 198.447 102.727 197.951 101.881C197.455 101.035 196.744 100.334 195.89 99.8508C195.037 99.3671 194.071 99.1174 193.09 99.1268H152.941ZM94.8624 99.1508C93.8835 99.1401 92.9192 99.3881 92.0668 99.8696C91.2145 100.351 90.5044 101.049 90.0082 101.893C89.5121 102.737 89.2475 103.697 89.2413 104.676C89.235 105.655 89.4873 106.618 89.9726 107.468L121.828 164.444L135.035 189.971V99.1508H94.8624Z" fill="#0098EA"/>
</svg>
